<?xml version="1.0" standalone="no"?>
<!DOCTYPE svg PUBLIC "-//W3C//DTD SVG 20010904//EN"
 "http://www.w3.org/TR/2001/REC-SVG-20010904/DTD/svg10.dtd">
<svg version="1.0" xmlns="http://www.w3.org/2000/svg"
 width="300.000000pt" height="225.000000pt" viewBox="0 0 300.000000 225.000000"
 preserveAspectRatio="xMidYMid meet">
<metadata>
Created by potrace 1.10, written by Peter Selinger 2001-2011
</metadata>
<g transform="translate(0.000000,225.000000) scale(0.100000,-0.100000)"
fill="#f5f5f5" stroke="none">
<path d="M1360 2240 c-460 -59 -834 -385 -950 -827 -87 -332 -14 -692 194
-962 53 -68 173 -184 241 -232 366 -260 856 -273 1244 -32 95 59 271 232 336
331 232 356 242 818 24 1183 -157 264 -420 454 -719 520 -102 22 -278 31 -370
19z m745 -1115 l0 -750 -620 0 -620 0 -3 740 c-1 407 0 746 3 753 3 10 133 12
622 10 l618 -3 0 -750z"/>
<path d="M900 1125 l0 -715 585 0 585 0 0 715 0 715 -585 0 -585 0 0 -715z
m1100 0 l0 -645 -515 0 -515 0 0 645 0 645 515 0 515 0 0 -645z"/>
<path d="M1075 1125 l0 -535 83 0 82 0 1 283 1 282 45 -140 c24 -77 64 -204
89 -282 l45 -143 63 0 63 0 89 282 89 282 3 -282 2 -282 80 0 80 0 0 535 0
536 -81 -3 -81 -3 -121 -352 c-67 -194 -123 -351 -124 -349 -2 2 -57 160 -122
352 l-119 349 -83 3 -84 3 0 -536z"/>
</g>
</svg>
