<?xml version="1.0" standalone="no"?>
<!DOCTYPE svg PUBLIC "-//W3C//DTD SVG 20010904//EN"
 "http://www.w3.org/TR/2001/REC-SVG-20010904/DTD/svg10.dtd">
<svg version="1.0" xmlns="http://www.w3.org/2000/svg"
 width="2000.000000pt" height="1500.000000pt" viewBox="0 0 2000.000000 1500.000000"
 preserveAspectRatio="xMidYMid meet">

<g transform="translate(0.000000,1500.000000) scale(0.100000,-0.100000)"
fill="#804dee" stroke="#ffffff">
<path d="M9490 14979 c-848 -52 -1681 -246 -2450 -571 -1216 -515 -2274 -1342
-3075 -2406 -545 -725 -959 -1562 -1209 -2449 -368 -1300 -368 -2736 0 -4036
447 -1582 1392 -2958 2712 -3952 725 -545 1562 -959 2449 -1209 1300 -368
2736 -368 4036 0 1582 447 2958 1392 3952 2712 545 725 959 1562 1209 2449
368 1300 368 2736 0 4036 -447 1582 -1392 2958 -2712 3952 -1079 811 -2381
1318 -3727 1449 -360 36 -845 46 -1185 25z m4555 -7479 l0 -4985 -4145 0
-4145 0 -3 4975 c-1 2736 0 4981 3 4988 3 10 838 12 4147 10 l4143 -3 0 -4985z"/>
<path d="M5990 7500 l0 -4750 3910 0 3910 0 0 4750 0 4750 -3910 0 -3910 0 0
-4750z m7360 0 l0 -4290 -3450 0 -3450 0 0 4290 0 4290 3450 0 3450 0 0 -4290z"/>
<path d="M7150 7500 l0 -3590 565 0 565 0 2 1886 3 1887 554 -1779 c305 -979
570 -1827 588 -1886 l34 -108 429 0 429 0 39 123 c21 67 290 918 598 1891
l559 1769 3 -1892 2 -1891 565 0 565 0 0 3590 0 3590 -564 0 -563 0 -35 -97
c-18 -54 -385 -1121 -813 -2370 -429 -1250 -782 -2273 -785 -2273 -3 0 -331
962 -729 2138 -398 1175 -760 2242 -804 2370 l-80 232 -563 0 -564 0 0 -3590z"/>
</g>
</svg>
